<svg version="1" xmlns="http://www.w3.org/2000/svg" width="106.667" height="106.667" viewBox="0 0 80.000000 80.000000"><path d="M2.2 2.3C0 4.6 0 5.1 0 40.1v35.6l2.3 2.1C4.6 80 5.1 80 40.1 80h35.6l2.1-2.3C80 75.4 80 74.9 80 39.9V4.3l-2.3-2.1C75.4 0 74.9 0 39.9 0H4.3L2.2 2.3zm50.8 20c6.5 3 20 15 20 17.7 0 2.6-13.7 14.7-20.3 18-13.1 6.4-25.3 3.3-38.8-10-3.8-3.7-6.9-7.3-6.9-8 0-2.1 13.3-14.4 18.7-17.3 9.9-5.3 16.9-5.4 27.3-.4z"/><path d="M33.2 26.6c-13.1 6.7-9.4 26.5 5.2 28.1 11.5 1.3 20-10.6 15.1-21.1-3.5-7.3-13.1-10.6-20.3-7zm13.7 1.2c9.3 5 9.3 19.4 0 24.4-12.5 6.7-25.8-6.6-19.1-19.1C30 29 35.2 26 40 26c1.9 0 5.1.8 6.9 1.8z"/><path d="M35.2 35.3c-2.8 3-2.8 6.8.1 9.5 3 2.8 6.8 2.8 9.5-.1 2.5-2.7 3-7.7.7-7.7-.8 0-2-.9-2.7-2-1.7-2.7-5-2.5-7.6.3z"/></svg>